<?xml version="1.0" encoding="UTF-8"?><svg xmlns="http://www.w3.org/2000/svg" viewBox="0 0 1080 841.89"><defs><style>.cls-1{fill:#a6b62d;}.cls-2{fill:#a6b52e;}.cls-3{font-size:38.672px;}.cls-3,.cls-4{font-family:TrebuchetMS-Bold, 'Trebuchet MS';}.cls-3,.cls-5{fill:#dd4017;}.cls-6{fill:#cbcaca;}.cls-7{fill:#dd4118;}.cls-8{fill:#fcfdfd;}.cls-9{fill:#191a1a;}.cls-10{fill:#a8d9e7;}.cls-11{fill:#ea6c29;}.cls-12{fill:#f8e842;}.cls-13{fill:#f9eb62;}.cls-14{fill:#b9c22a;}.cls-15{fill:#70210e;}.cls-16{fill:#ce3a2a;}.cls-17{fill:#f8e73c;}.cls-18,.cls-4{fill:#dc3f16;}.cls-19{fill:#cde7e3;}.cls-20{fill:#dae5a0;}.cls-21{fill:#bdc529;}.cls-22{fill:#b3c529;}.cls-23{fill:#b1cc37;}.cls-24{fill:#c3c939;}.cls-25{fill:#a6ab92;}.cls-26{fill:#d3e08c;}.cls-27{fill:#1c1c1c;}.cls-28{fill:#7a7f5b;}.cls-29{fill:#c7d86e;}.cls-30{fill:#d1de87;}.cls-31{fill:#4c231b;}.cls-32{fill:#f9ea5b;}.cls-33{fill:#b2c429;}.cls-34{fill:#fcebe5;}.cls-35{fill:#f9e847;}.cls-36{fill:#f9eb5f;}.cls-37{fill:#f9eb66;}.cls-38{fill:#f9ea59;}.cls-39{fill:#53261c;}.cls-40{fill:#f8e94a;}.cls-41{fill:#6db232;}.cls-42{fill:#fffffe;}.cls-43{fill:#d5e190;}.cls-44{fill:#414141;}.cls-45{fill:#b3b5a0;}.cls-46{fill:#9cae39;}.cls-47{fill:#93a831;}.cls-48{fill:#9caf33;}.cls-49{fill:#faee7e;}.cls-50{fill:#e0e8ad;}.cls-51{fill:#c5d768;}.cls-52{fill:#91a733;}.cls-53{letter-spacing:-.129em;}.cls-54{fill:#df4e23;}.cls-55{fill:#373737;}.cls-56{fill:#f8e62c;}.cls-57{fill:#faed6d;}.cls-58{fill:#faec6e;}.cls-59{fill:#c7cd2b;}.cls-60{fill:#dd4018;}.cls-61{fill:#95aa34;}.cls-62{fill:#aab82f;}.cls-63{fill:#c1c832;}.cls-64{fill:#bac32c;}.cls-65{fill:#faee7d;}.cls-66{fill:#8e5e20;}.cls-67{fill:#60a232;}.cls-68{fill:#f39d27;}.cls-69{fill:#f8e843;}.cls-70{fill:#9daf31;}.cls-71{fill:#505626;}.cls-72{fill:#653e34;}.cls-4{font-size:42.179px;}.cls-73{fill:#f8e941;}.cls-74{fill:#686868;}.cls-75{fill:#7a797a;}.cls-76{fill:#55271d;}.cls-77{fill:#b0bc2b;}.cls-78{fill:#e2eab5;}.cls-79{fill:#fbc31c;}.cls-80{fill:#fbd72a;}.cls-81{fill:#0da2c5;}.cls-82{fill:#b9b9b9;}.cls-83{fill:#dd4316;}</style></defs><g id="Capa_1"><g><path class="cls-23" d="M218.548,334.415c-12.719,21.012-21.285,43.353-22.047,68.172-.063,2.04-1.867,5.12,1,5.799,2.251,.533,1.852-2.726,2.371-4.376,8.823-28.045,25.175-51.064,45.143-72.638,20.486-22.135,44.698-38.452,70.456-53.21,2.27-.491,2.918,.553,2.499,2.605-22.866,16.697-42.289,36.417-58.192,60.039-39.695,58.964-33.336,125.894,17.24,175.702,40.622,40.005,90.035,61.995,145.681,71.688,4.522,3.565,10.083,1.142,14.99,2.551,4.91,1.162,10.026,.904,14.921,2.204,32.351,5.85,64.973,9.619,97.804,9.694,38.603,.088,77.345,2.642,115.76-3.736,1.91-.317,3.857-.017,5.756,.44,2.055,.797,4.136,1.583,3.859,4.397-111.818,24.365-223.404,27.741-333.155-9.051-33.291-11.16-66.223-26.197-92.916-50.12-28.068-25.155-51.654-54.669-62.224-91.197-13.012-44.966-.999-85.663,28.677-121.483,2.03-.313,3.203,.172,2.378,2.518Z"/><path class="cls-71" d="M438.875,449.551c-7.526-6.018-15.671-11.039-24.057-15.828-13.075-7.465-13.585-28.589-1.29-37.1,12.081-8.363,15.109-28.336,3.568-36.969-8.674-6.489-8.481-12.489-7.586-21.438,2.311-23.111-13.076-42.839-34.409-45.805-24.028-3.341-43.015,9.971-47.662,34.29-1.096,5.736-5.081,7.06-8.712,9.625-18.988,13.414-17.37,44.406,3.852,53.287,9.281,3.884,8.404,9.226,9.534,16.443,2.512,16.047-4.247,25.467-18.542,31.392-4.174,1.73-7.691,5.026-11.509,7.604-.346,2.178,.116,3.489,2.721,2.5,44.541-16.355,88.555-16.474,131.893,4.226,2.453,.93,2.825-.164,2.199-2.229Zm-75.294-54.026c-.206,1.478-.494,2.944-.667,4.426-.03,.258-.041,.517-.065,.776,.078,.096,.133,.206,.134,.344,.006,.868,.085,1.734,.097,2.602,.012,.888-.023,1.777-.045,2.664-.022,.858,.012,1.725-.045,2.581-.028,.418-.1,.835-.153,1.25-.007,.052-.011,.11-.016,.165,.002,.02,.016,.034,.016,.055,0,.929,.003,1.85-.18,2.764-.172,.856-.37,1.714-.623,2.55-.25,.825-.557,1.646-1.018,2.377-.344,.545-.768,1.036-1.121,1.574-.017,.169-.118,.291-.241,.4-.002,.004-.005,.007-.007,.011,.033-.029,.066-.058,.099-.087-.154,.148-.231,.354-.383,.504-.166,.164-.362,.293-.562,.413,0,.001-.003,.004-.003,.005-.002,.002-.003,.005-.005,.007-.003,.004-.006,.008-.009,.012-.008,.01-.016,.019-.025,.027-.057,.056-.12,.108-.181,.16-.01,.008-.02,.017-.031,.025-.024,.018-.049,.035-.074,.051-.054,.035-.11,.066-.167,.096-.111,.059-.224,.113-.337,.168-2.13,1.661-5.49,2.407-7.529,2.469-.117,.004-.238-.006-.357-.006-.188,.103-.415,.161-.622,.161-.768,.001-1.539,.026-2.28-.178-.049-.007-.1-.011-.149-.019-.067-.011-.134-.023-.201-.033-.016-.002-.021-.004-.033-.005-.008,0-.009,0-.018,0-.298-.018-.598-.054-.893-.098-.673-.102-1.365-.222-2.028-.381-.717-.172-1.537-.439-2.001-1.055-.581-.771-.493-1.846-.49-2.758,0-.099,.033-.181,.075-.258-.252-.56-.433-1.165-.504-1.828-.232-2.169-.011-3.906,.278-5.897-.076-.093-.131-.2-.142-.331-.079-.947-.216-1.884-.239-2.835-.022-.946-.022-1.892-.022-2.839,0-.133,.05-.241,.121-.335-.2-.744-.194-1.434-.051-2.076-.254-2.066-.171-4.152-.168-6.23,0-.169,.074-.302,.185-.407,.196-.575,.483-1.125,.717-1.681,.292-.694,.449-1.436,1.004-1.984,.294-.29,.621-.544,.974-.757,.189-.114,.386-.218,.583-.318,.152-.078,.27-.13,.377-.196,.375-.231,.758-.452,1.17-.609,.4-.152,.695-.309,1.086-.387,.084-.036,.169-.063,.247-.072,.09-.011,.179-.022,.268-.033,.024-.009,.05-.02,.074-.028,.132-.043,.266-.079,.4-.117,.03-.009,.06-.017,.09-.026,.029-.008,.035-.01,.035-.009,.024-.01,.055-.022,.063-.025,.141-.042,.282-.083,.425-.119,.365-.091,.739-.139,1.111-.196,.18-.027,.36-.056,.538-.093,.08-.016,.159-.034,.238-.054,.049-.025,.094-.033,.079-.024,.01-.003,.019-.006,.028-.009,.063-.021,.134-.021,.201-.034,.476-.487,1.184-.708,1.694-1.085,.841-.622,1.406-1.532,2.044-2.342,.329-.418,.732-.757,1.079-1.158,.32-.37,.619-.754,.983-1.083,.426-.384,.927-.671,1.459-.883,.351-.246,.716-.446,1.137-.561,.587-.161,1.18-.077,1.742,.134,.255,.096,.491,.22,.696,.4,.146,.128,.273,.267,.405,.409,.012,.013,.046,.043,.074,.072,.01,.008,.018,.016,.026,.026,.081,.061,.161,.124,.243,.185,.169,.125,.341,.248,.509,.376,.087,.066,.156,.141,.208,.225,.194,.079,.364,.2,.448,.393,.219,.505,.206,1.075,.2,1.615-.007,.651,.015,1.302,.031,1.952,.016,.66,.017,1.32,.017,1.981,0,.31,.05,.672,.031,1.008,.065,.093,.12,.194,.156,.307,.377,1.185-.041,2.617-.208,3.815Zm34.088,20.368c-.202,1.367-.52,2.888-1.253,4.115-.006,.039-.011,.078-.018,.118-.032,.188-.064,.381-.148,.553-.026,.058-.081,.092-.12,.14-.019,.05-.028,.103-.052,.151-.145,.29-.34,.552-.546,.802-.005,.007-.013,.01-.019,.016-.014,.025-.02,.05-.037,.076-.237,.365-.579,.613-.959,.812-.357,.188-.72,.357-1.108,.475-.779,.236-1.641,.425-2.456,.292-.253,.054-.507,.085-.747,.085-1.835,0-3.656-.121-5.403-.721-.038-.013-.073-.035-.11-.05-.132-.028-.264-.057-.395-.087-.324-.075-.645-.17-.963-.268-.133-.041-.264-.09-.391-.148-.119-.045-.225-.11-.332-.172-.125-.009-.253-.005-.375-.031-.541-.117-1.084-.232-1.606-.421-.295-.106-.572-.248-.867-.352-.555-.143-1.107-.291-1.626-.542-.79-.382-1.458-.81-2.088-1.423-.489-.475-.761-1.085-1.005-1.708-.211-.538-.489-1.053-.531-1.64-.315-1.109-.381-2.273-.38-3.422,0-.75,.016-1.5,.004-2.25-.005-.339-.019-.68,.02-1.018,.032-.279,.098-.552,.166-.824-.042-.317-.063-.629-.016-.953,.037-.258,.085-.514,.115-.772-.104-.708-.138-1.428,.017-2.208,.003-.094,0-.188,.012-.281-.039-.338-.108-.669-.122-1.011-.013-.322-.009-.645-.01-.967-.001-.729-.011-1.458-.019-2.187-.013-1.132-.011-2.263-.01-3.395-.003-.025,0-.049,0-.074,0-.292-.003-.585-.003-.877,0-.021,.008-.037,.009-.057-.003-.36,.002-.719,.014-1.08,.004-.136,.003-.272,.005-.408-.09-.097-.15-.215-.15-.358,0-.797,.007-1.595,.016-2.392,.004-.351,.002-.703,.021-1.054,.009-.159,.019-.319,.011-.478,0-.014-.003-.028-.004-.042-.053-.077-.093-.162-.093-.265v-.104c-.02-.081-.022-.158,0-.228v-1.878c-.026-.273-.021-.557-.012-.821,.016-.451,.13-.891,.209-1.334,.16-.896,.39-1.782,.397-2.697,0-.123,.053-.219,.12-.305,.02-.041,.042-.081,.073-.117-.004-.009-.008-.018-.009-.029-.013-.204,.144-.368,.293-.481,.397-.3,1.01-.24,1.414,0,.366,.218,.754,.495,1,.847,.223,.319,.359,.662,.496,1.022,.064,.168,.132,.335,.218,.493,.02,.037,.041,.073,.063,.11,.009,.015,.122,.193,.032,.055,.052,.08,.104,.162,.156,.242,.029,.045,.057,.089,.086,.134,.033,.052,.212,.299,.114,.181-.068-.082,.032,.041,.038,.05,.021,.03,.042,.06,.062,.091,.059,.089,.099,.169,.141,.251,.07,.063,.129,.134,.153,.213,.117,.389,.216,.768,.362,1.148,.005,.014,.009,.029,.014,.042,.047,.096,.098,.189,.137,.292,.035,.09,.062,.183,.092,.275,.038,.026,.085,.04,.118,.073,.082,.058,.141,.136,.179,.231,.067,.203,.148,.401,.213,.604,.011,.035,.019,.073,.029,.109,.072,.062,.133,.136,.172,.226,.08,.184,.172,.362,.273,.536,.01,.017,.013,.022,.018,.03,.025,.039,.051,.079,.077,.118,.049,.074,.1,.147,.151,.22,.218,.311,.449,.612,.663,.926,.138,.204,.267,.414,.392,.625,.049,.082,.097,.164,.147,.246,.024,.04,.048,.079,.072,.118,.012,.018,.023,.037,.035,.055,.11,.169,.24,.334,.362,.503,.12,.06,.243,.119,.352,.185,1.167,.714,1.948,1.792,2.982,2.642,1.03,.847,2.316,1.392,3.413,2.156,.093,.027,.187,.05,.277,.088,.4,.2,.78,.403,1.145,.657,.212,.147,.424,.293,.646,.423,.347,.175,.688,.365,1.018,.57,.216,.109,.426,.229,.626,.361,.025,.016,.032,.022,.04,.027,.003,0,.006,.001,.023,.01,.069,.035,.139,.067,.207,.101,.186,.093,.383,.184,.551,.309,.568,.424,.943,1.053,1.244,1.682,.302,.633,.615,1.269,.881,1.917,.144,.352,.271,.714,.434,1.057,.015,.031,.032,.06,.048,.09,.249,.257,.411,.575,.407,.972-.009,1.033,.288,2.014,.466,3.019,.089,.167,.163,.349,.203,.56,.23,1.214,.114,2.435,.099,3.66-.015,1.247,.122,2.502-.061,3.743Z"/><path class="cls-29" d="M880.287,497.713c16.382-25.003,30.295-50.907,30.388-81.874,.065-21.53-4.196-42.143-15.384-60.682-12.343-20.454-26.975-39.024-45.988-54.211-49.89-39.849-107.911-61.197-168.893-77.605-44.214-11.897-88.975-17.674-134.318-21.107-.89-.348-1.198-.723-.928-1.129,.276-.416,.556-.627,.843-.627,45.612-2.585,90.424,4.055,133.931,16.136,33.939,9.424,67.98,19.331,100.543,33.46,32.118,13.935,61.403,32.451,87.311,55.302,31.792,28.04,53.59,62.113,52.639,106.844-.733,34.477-16.555,62.282-37.733,87.96-2.123,.45-3.175-.133-2.412-2.466Z"/><path class="cls-81" d="M450.04,595.231c-4.95-.34-10.071,.263-14.561-2.61-.551-1.854-.022-3.302,1.645-4.322,13.796-.836,26.441-5.344,37.664-13.082,4.729-3.261,7.211-2.549,11.801,.435,16.906,10.989,35.779,19.034,55.978,16.147,16.693-2.386,34.073-5.98,48.441-16.077,5.804-4.079,9.565-3.401,15.209,.032,11.933,7.257,25.257,11.094,39.24,12.437,10.278,3.223,20.553,3.273,30.825-.026,11.243-1.077,21.586-4.791,31.198-10.589,2.494-1.505,4.778-4.423,7.658-.605-4.426,7.389-8.868,14.765-16.15,19.906-15.028,1.951-30.128,1.522-45.172,1.544-53.715,.076-107.432,.538-161.144-.245-14.241-.208-28.466-1.324-42.632-2.946Z"/><path class="cls-8" d="M450.04,595.231c81.62-.096,163.24-.189,244.86-.299,3.083-.004,6.167-.177,9.25-.271,2.619-1.306,4.474-1.144,4.592,2.357-3.367,.732-6.735,1.465-10.102,2.197-8.584-1.448-16.568,3.423-25.116,2.355-53.05,7.84-106.273,6.75-159.495,2.561-21.472-1.69-43.053-3.16-63.988-8.9Z"/><path class="cls-15" d="M788.332,384.569c.576-.646,1.152-1.293,1.727-1.939,7.934,.529,8.613,6.33,8.982,12.282,.811,13.085-1.94,25.91-3.276,38.809-3.662,35.357-13.019,69.056-31.816,99.717-2.249,3.669-2.564,8.013-4.157,11.913-4.832,14.784-17.483,23.047-27.988,33.1-5.035,4.003-9.774,8.309-14.243,12.944-2.521,2.615-6.034,4.322-8.957,1.091-3.002-3.318-.545-6.409,2.208-8.664,6.777-5.55,12.631-12.027,18.883-18.112,26.297-32.556,44.253-68.691,51.387-110.302,2.208-12.877,3.616-25.707,4.983-38.612,.311-2.264,.689-4.537-.557-6.678-.438-.751-.358-1.443,.239-2.077,.387-1.099,1.237-1.96,1.601-3.071-.025-.902-.05-1.804-.075-2.707-2.025-4.916,.32-10.344-1.809-15.248-.484-.71-.413-1.359,.214-1.949,.747-.887,1.624-1.089,2.653-.499Z"/><path class="cls-5" d="M359.836,504.749c-2.195-.424-7.49-1.416-12.772-2.473-5.93-1.186-5.725-5.873-4.906-9.954,1.413-7.042,5.663-1.292,7.796-.702,5.316,1.472,10.53,2.288,15.987,1.897,3.938-.282,6.868-2.073,6.922-6.203,.047-3.581-1.311-6.743-5.483-7.766-4.867-1.194-9.765-2.333-14.52-3.887-7.468-2.441-11.393-7.75-11.185-15.609,.217-8.211,4.348-13.667,12.388-16.082,8.467-2.544,16.785-1.094,25.192,.509,5.97,1.138,4.55,5.528,4.173,8.964-.63,5.746-4.381,1.934-6.909,1.708-4.593-.41-9.176-1.039-13.778-1.224-3.28-.132-6.314,1.032-6.995,4.669-.764,4.083,2.616,5.219,5.528,6.12,3.302,1.023,6.795,1.415,10.151,2.288,13.11,3.411,17.511,9.161,16.217,21.012-1.149,10.528-7.583,15.933-19.96,16.72-1.541,.098-3.093,.013-7.847,.013Z"/><path class="cls-5" d="M441.113,488.344c-.009-27.31-7.011-34.376-30.205-30.757-4.256,.664-11.915-.853-10.132,7.175,1.734,7.81,7.424,.808,11.204,1.611,1.085,.23,2.301-.233,3.442-.16,4.151,.266,10.329-.172,10.257,4.742-.071,4.841-6.185,1.741-9.49,2.701-1.459,.424-3.044,.432-4.576,.593-6.508,.681-12.396,2.669-13.961,9.795-1.32,6.013-1.942,12.399,3.75,16.963,5.601,4.492,11.866,5.01,18.429,2.151,2.058-.896,5.45-3.079,5.93-2.562,4.105,4.416,9.839,4.491,13.352,1.911,4.65-3.414,.984-9.955,1.999-14.163Zm-14.143,3.65c-2.29,2.364-5.737,3.639-9.005,3.3-2.413,.263-4.828-.34-6.373-2.34-1.44-1.863-1.395-4.211-.608-6.306,.223-1.875,1.255-3.635,3.045-4.559,1.053-.544,2.126-.781,3.266-.919,.053-.016,.103-.039,.157-.054,1.192-.322,2.38-.287,3.49-.007,.671-.008,1.338,.078,1.99,.255,.2,.033,.407,.057,.597,.101,4.814,1.11,7.031,6.823,3.441,10.528Z"/><path class="cls-79" d="M747.969,493.338c-.677-.597-1.355-1.195-2.032-1.792-1.071,.392-1.737,.07-1.931-1.082-2.739-3.191-6.21-2.614-9.609-1.658-13.695,3.852-36.37,24.811-33.389,42.074,1.608,1.441,3.042,2.987,4.059,4.89l2.992,2.656c6.624-2.079,13.725-3.036,19.112-8.026,1.222-.966,2.5-1.842,3.795-2.7,.876-.53,1.736-1.083,2.541-1.724,4.067-5.919,9.725-2.122,14.721-2.389,1.751-.932,2.221-2.544,2.34-4.344,2.683-8.987-5.863-16.861-2.601-25.905Z"/><path class="cls-7" d="M453.649,480.12c.006-5.369,.082-10.74-.021-16.107-.069-3.586,1.185-6.922,5.057-5.584,8.411,2.907,16.049-.615,24.057-1.18,9-.636,14.196,5.299,14.611,14.32,.387,8.421-.008,16.876,.287,25.304,.168,4.804-1.353,6.909-6.513,6.818-4.998-.088-8.084-.956-7.762-6.934,.371-6.882,.048-13.802,.03-20.705-.011-4.189-.982-7.794-6.041-8.162-4.561-.331-7.156,2.321-8.435,6.364-2.255,7.126-1.116,14.479-1.109,21.721,.005,5.016-.937,7.827-6.909,7.74-5.537-.081-7.633-2.071-7.324-7.491,.305-5.352,.067-10.735,.073-16.104Z"/><path class="cls-60" d="M632.364,481.479c.002,2.691,.003,5.383,.002,8.074-.003,13.997-.026,14.111-14.484,11.261-2.825-.557-4.097,1.446-6.096,2.194-12.72,4.757-21.724-.306-22.995-13.708-.759-8.007,.012-16.147-.413-24.2-.312-5.92,2.567-6.949,7.69-6.989,5.078-.04,6.871,1.751,6.64,6.724-.304,6.521-.222,13.074,.023,19.601,.158,4.207,.297,9.069,6.236,9.309,6.398,.259,8.854-3.942,9.106-9.582,.275-6.141,.45-12.311,.174-18.446-.234-5.189,1.129-7.625,7.001-7.655,5.627-.028,7.572,1.805,7.194,7.273-.371,5.358-.081,10.76-.078,16.143Z"/><path class="cls-7" d="M688.504,504.628c-1.543,0-3.252,.433-4.598-.078-4.702-1.788-13.839,1.266-12.315-7.804,1.414-8.41,7.593-.777,11.536-1.456,2.232-.384,4.612,.158,6.923,.118,2.813-.048,5.858-.665,6.276-3.797,.487-3.644-3.154-4.418-5.524-4.388-6.201,.076-10.712-3.191-15.328-6.425-4.795-3.359-5.113-8.305-4.339-13.42,.787-5.197,4.407-7.662,9.21-9.125,7.306-2.226,14.454-1.021,21.75,.037,4.807,.697,5.543,3.525,5.156,7.241-.593,5.693-4.457,2.35-6.984,2.161-2.285-.171-4.511-1.194-6.794-1.326-3.757-.219-9.05-.994-9.636,3.609-.516,4.055,4.659,4.222,7.924,4.47,10.728,.817,19.007,4.183,18.563,16.855-.32,9.127-7.856,13.662-21.821,13.331Z"/><path class="cls-18" d="M538.912,473.264c-.003-6.899,.284-13.813-.09-20.692-.319-5.871,.624-9.162,7.883-8.99,6.703,.159,7.42,3.332,7.304,8.612-.227,10.344,.398,20.723-.224,31.035-.474,7.86,2.609,10.286,10.006,9.426,3.806-.443,7.711,.028,11.568-.067,4.074-.1,5.292,1.936,5.183,5.713-.092,3.22-1.185,5.162-4.58,5.174-10.806,.039-21.612-.056-32.417,.041-4.546,.041-4.667-2.83-4.647-6.106,.05-8.048,.016-16.097,.014-24.146Z"/><path class="cls-56" d="M468.092,229.652c-12.123-3.913-24.72-5.821-37.399-6.648-12.842-.838-25.545-.708-35.502,9.714-11.072,11.59-9.018,22.595,5.674,28.876,9.137,3.907,18.801,3.805,28.445,3.834,14.068,.156,27.764-1.765,40.408-8.187,5.61-2.849,10.839-7.025,10.664-13.919-.188-7.446-5.759-11.563-12.291-13.672Zm6.771,13.506c-.255,2.325-1.031,4.675-2.217,6.692-1.655,2.814-4.521,4.282-7.469,5.427-3.415,1.326-6.823,2.574-10.379,3.479-4.029,1.025-8.135,1.763-12.222,2.517-8.416,1.552-17.09,2.566-25.511,.484-.087-.021-.178-.049-.271-.081-.04-.006-.083-.009-.121-.017-2.125-.45-4.291-.769-6.347-1.496-.511-.18-1.012-.379-1.509-.584-.055-.007-.117,.003-.168-.009-.378-.091-.763-.146-1.139-.247-.498-.135-.964-.331-1.442-.525-.853-.345-1.691-.678-2.496-1.129-.044-.025-.068-.073-.107-.106-4.315-1.516-9.521-4.323-9.625-9.327-.046-2.236,.943-4.286,2.165-6.16-.003-.121,.01-.241,.062-.351,.245-.513,.551-.983,.893-1.426,.027-.137,.086-.266,.181-.357,.284-.271,.474-.612,.684-.939,.217-.338,.488-.633,.733-.951,.535-.693,1.129-1.331,1.665-2.023,.082-.106,.191-.185,.308-.251,.759-1.002,1.56-1.969,2.458-2.834,.066-.08,.143-.155,.234-.225,.388-.358,.788-.704,1.218-1.017,.177-.129,.384-.218,.608-.272,2.491-1.724,5.063-3.351,7.868-4.509,3.65-1.508,7.57-2.018,11.47-1.34,.161,.028,.331,.084,.498,.156,.357,.04,.712,.086,1.067,.138,.085,.012,.171,.032,.258,.057,.175-.005,.35,.004,.525,.041,1.238,.334,2.525,.489,3.706,1.018,.101,.045,.198,.095,.291,.151,1.815,.434,3.625,1.438,5.462,1.722,1.882,.291,3.801,.319,5.687,.605,1.018,.154,2.014,.362,3.017,.535,1.982-.089,3.965-.151,5.95-.061,1.919,.088,3.844,.3,5.71,.767,.112-.012,.227-.029,.331-.024,1.38,.061,2.693,.33,4.018,.708,1.178,.336,2.065,.59,3.268,.885,2.153,.529,4.435,.987,6.259,2.327,.154,.113,.264,.244,.355,.381,.421,.215,.831,.455,1.193,.749,.656,.531,1.209,1.113,1.575,1.884,.027,.057,.033,.114,.045,.171,1.144,1.498,1.468,3.463,1.259,5.37Z"/><path class="cls-77" d="M782.498,334.026c-.12-6.069-8.019-7.849-7.878-14.338,.043-1.986-1.815-4.075-.762-6.415,4.335-11.122,14.501-7.788,22.805-9.07,13.683,10.824,14.112,24.88,9.907,40.067-5.923-8.282-16.833-5.009-24.071-10.244Z"/><path class="cls-14" d="M838.858,368.415c19.795,3.223,22.869,20.31,28.888,34.76,1.559,3.742,1.549,8.128,2.26,12.219-4.788-.029-6.52-4.512-9.799-6.738-9.581-6.504-18.938-13.333-28.382-20.034,1.132-7.152,.632-14.864,7.034-20.207Z"/><path class="cls-52" d="M726.26,398.366c14.308-14.226,31.22-22.747,51.779-23.054,2.464-.037,6.052-1.019,6.843,2.452,.58,2.544-2.35,3.623-4.304,4.68-10.913,5.906-20.115,14.131-29.878,21.595-8.392-.849-18.05,3.679-24.44-5.674Z"/><path class="cls-39" d="M759.794,545.351c-.931-6.004,.87-11.353,4.008-16.369,20.614-32.944,27.972-69.583,30.821-107.584,.596-7.948,2.644-15.755,2.232-23.865-.305-5.997-1.216-11.419-6.795-14.905,2.455-5.83,5.288-1.08,7.979-.28,3.13,2.167,6.091,4.396,3.308,8.764-.258,32.633-5.64,64.717-13.562,96.129-3.923,15.556-12.786,29.982-20.237,44.503-2.344,4.569-2.356,10.706-7.754,13.605Z"/><path class="cls-9" d="M601.569,257.735c-4.63,3.339-7.429,7.645-7.295,13.525,.072,3.15-1.377,5.058-4.633,5.422-2.815,.315-4.293-1.35-5.12-3.656-4.606-12.844-13.673-6.986-19.254-2.813-16.52,12.354-36.65,16.604-54.441,25.916-1.966,1.029-4.774,2.062-5.927-.423-.844-1.82,1.795-3.002,3.369-4.045,.64-.424,1.3-.83,1.99-1.166,19.091-9.293,38.162-18.626,57.307-27.809,3.066-1.471,6.231-2.937,9.928-2.515,13.044,1.487,13.049,1.437,21.555-4.665,2.536-1.15,2.871,.158,2.522,2.228Z"/><path class="cls-1" d="M727.145,341.446c8.439-3.741,16.977-4.349,25.645-.797,4.357,9.115,6.185,17.992-2.466,25.884-4.804-.059-10.256,3.048-13.876-2.799-.83-.515-1.66-.515-2.491,0l-.17,.274c-.601,.861-1.29,1.646-2.067,2.354l-.014,.01c-3.818,2.287-6.193,.099-6.36-3.172-.372-7.274-2.949-14.864,1.8-21.755Z"/><path class="cls-27" d="M636.604,293.081c9.744-3.623,20.919,7.262,24.342,5.048,9.668-6.253,17.147-3.38,26.044-1.264,18.023,4.285,34.987,11.558,52.403,17.544,2.708,.931,7.654,1.616,6.623,5-.993,3.26-5.516,1.156-8.16,.323-19.059-6.003-38.141-11.969-56.987-18.589-8.278-2.907-14.28-2.578-17.555,6.492-.642,1.779-1.045,3.771-3.722,3.366-1.948-.295-2.082-1.644-2.358-3.241-1.729-10.03-9.208-12.15-17.851-12.584-2.295,1.091-2.949,.037-2.779-2.095Z"/><path class="cls-76" d="M787.381,414.877c-1.157,55.566-19.003,105.219-53.595,148.905-1.15,1.452-2.969,2.381-4.476,3.554-1.006,.734-1.887,.608-2.642-.379,16.235-20.624,31.7-42.144,40.054-66.924,8.071-23.941,16.186-48.337,16.508-74.181,.048-3.818-.279-7.677,2.269-10.969,.624-1.042,1.252-1.098,1.883-.007Z"/><path class="cls-47" d="M750.325,366.534c4.327-8.299,1.424-17.277,2.466-25.884,1.529,.333,3.058,.666,4.587,.999,.918,.501,1.839,.995,2.765,1.482,11.672,3.814,19.233,12.329,25.682,22.125,1.054,1.602,2.479,3.453,1.094,5.099-.658,.782-2.915,.475-4.402,.293-10.737-1.318-21.462-2.731-32.191-4.113Z"/><path class="cls-64" d="M727.145,341.446c-.826,6.953,2.51,13.799,.234,20.897-.803,2.505,1.879,3.705,4.326,4.03-.549,.488-1.342,1.508-1.61,1.387-13.122-5.94-23.407,3.973-35.063,6.099-1.411,.257-2.88,.203-4.321,.294,.534-1.359,.792-2.923,1.643-4.045,9.311-12.272,19.282-23.796,34.791-28.662Z"/><path class="cls-83" d="M659.869,481.437c0,4.6-.153,9.207,.041,13.799,.214,5.071-.109,8.564-7.089,8.545-6.953-.019-7.195-3.473-7.096-8.562,.193-9.964,.328-19.944-.048-29.898-.207-5.494,1.592-7.233,7.173-7.252,5.639-.019,7.502,1.83,7.103,7.272-.392,5.339-.085,10.728-.085,16.095Z"/><path class="cls-21" d="M844.994,333.784c18.109-4.689,37.185,3.77,45.722,20.321,.681,1.321,1.801,3.045,1.425,4.148-.839,2.462-3.305,1.284-4.877,.873-11.387-2.982-23.052-1.734-34.581-2.472,7.647-13.223,6.781-15.799-7.689-22.87Z"/><path class="cls-46" d="M782.498,334.026c4.482,.039,8.967-.001,13.446,.137,6.537,.202,10.586,3.104,10.625,10.105,1.673,4.48-6.006,8.636-.461,13.248,.637,3.578,.309,6.513-4.407,6.526-3.854-3.086-3.665,1.618-5.118,2.803-2.202,1.796-3.985,2.764-4.771-.81-2.392-10.881-9.423-20.424-9.313-32.01Z"/><path class="cls-61" d="M801.7,364.043c1.469-2.176,2.938-4.351,4.407-6.526,5.008-7.631,11.63-13.345,20.186-16.763,1.204-.181,2.026-1.033,2.972-1.667,.42-.576,.977-.781,1.673-.615,1.163-.196,1.984-1.041,2.981-1.553,.77-.207,1.541-.414,2.311-.621,4.349,4.633,3.842,10.227,2.757,15.703-.74,3.736-2.275,7.351-7.494,5.281l.078,.074c-.873-.803-1.538-.616-2.025,.42-7.871,7.309-18.759,7.346-27.962,11.444-1.113-1.064-1.275-2.256-.485-3.575-.16-.668,.04-1.202,.601-1.603Z"/><path class="cls-70" d="M801.347,391.113c-1.099-2.921-2.198-5.842-3.303-8.763,20.504,1.953,30.396,14.697,28.725,37.014-3.765,3.292-7.531,2.663-11.298,.002-4.978-9.285-6.738-20.156-14.124-28.254Z"/><path class="cls-62" d="M831.493,357.283c9.478-5.236,2.707-14.09,4.738-20.985,2.459-2.425,5.593-2.532,8.763-2.514,3.028,.112,6.061,.387,9.083,.299,5.068-.147,8.147,.683,5.891,6.99-1.953,5.458,4.568,14.661-7.285,15.58-7.083-.449-13.975,5.428-21.189,.629Z"/><path class="cls-2" d="M726.26,398.366c7.227,5.795,17.433-1.059,24.44,5.674-4.613,4.69-7.508,11.4-14.732,13.039-4.44,1.007-.652,5.734-3.689,7.188-12.76,4.856-15.988,2.695-14.657-9.806,.569-6.588,3.665-11.838,8.638-16.096Z"/><path class="cls-48" d="M838.858,368.415c-3.033,6.5-.93,14.763-7.034,20.208-9.753-.45-17.785-6.263-26.985-8.614-5.99-1.531-3.338-4.892,.38-6.76,5.137-2.582,10.371-5.105,16.386-4.915,5.761-1.064,11.514-1.35,17.246,.192l.008-.111Z"/><path class="cls-59" d="M796.663,304.203c-6.289,6.279-17.09,1.37-22.805,9.07-4.157-5.628-8.357-11.227-12.447-16.903-1.266-1.757-3.73-3.581-2.296-5.801,.594-.92,3.633-.67,5.456-.356,11.839,2.037,23.438,4.713,32.092,13.99Z"/><path class="cls-31" d="M726.667,566.958c.882,.125,1.764,.25,2.644,.377-6.081,6.415-12.192,12.799-18.213,19.266-1.24,1.332-3.012,3.025-.904,4.834,1.782,1.53,3.425,.466,4.968-1.001,4.989-4.741,9.283-10.474,16.642-11.981-5.787,8.515-11.14,17.564-23.062,18.566-1.531-.786-3.062-1.571-4.592-2.357-4.283-4.661-3.913-8.393,2.054-11.316,3.306-1.619,6.895-2.968,8.937-6.377,3.84-3.334,7.683-6.672,11.526-10.011Z"/><path class="cls-11" d="M729.649,525.9c.686-.125,1.366-.274,2.041-.447,6.097,.981,5.885,5.199,5.062,9.731l.118-.138c-1.909,.672-1.404,3-2.798,4.025-8.779,4.295-17.42,3.053-26.005-.641,4.692-6.475,13.864-4.92,19.065-10.487,.674-.882,1.527-1.545,2.518-2.042Z"/><path class="cls-63" d="M717.622,414.461c-1.244,12.303,7.96,9.206,14.656,9.806-3.098,5.694-6.118,11.432-9.318,17.07-2.649,4.667-4.318,3.394-5.423-1.019-2.163-8.636-3.56-17.248,.086-25.856Z"/><path class="cls-40" d="M351.546,274.853c-1.551-.665-3.552-.888-4.039-1.86-1.092-2.181,.803-3.391,2.589-4.197,9.752-4.403,19.62-8.531,30.079-10.996,1.986-.468,5.019-1.637,5.768,1.178,.523,1.963-2.353,2.672-4.099,3.207-10.45,3.202-20.505,7.361-30.299,12.668Z"/><path class="cls-16" d="M608.438,536.529c.099,.165,.195,.332,.297,.496,.778,1.258,1.66,2.13,2.615,2.712-1.033-1.003-2.01-2.065-2.912-3.208Z"/><path class="cls-69" d="M438.735,220.682c-3.562-.39-4.149-3.224-2.718-5.652,4.008-6.797,11.368-10.895,14.925-18.392,1.164-2.453,4.919-.332,5.754,2.675,.683,2.458-14.97,21.072-17.961,21.369Z"/><path class="cls-69" d="M488.511,233.232c-.479-.214-1.787-.797-3.095-1.379,1.012-1.016,1.843-2.544,3.063-2.969,10.948-3.812,22.187-6.226,33.861-6.05,1.233,.019,3.272-.609,3.345,1.536,.021,.634-1.448,1.729-2.379,1.921-11.256,2.324-22.54,4.519-34.794,6.941Z"/><path class="cls-36" d="M351.576,230.008c8.732,1.993,18.378,4.146,27.993,6.426,2.148,.509,5.223,1.191,4.341,4.014-.567,1.814-3.276,.653-5.141,.268-9.681-1.999-19.39-3.872-29.091-5.774-2.463-.483-6.639,.237-6.1-3.22,.434-2.783,4.553-.995,7.999-1.715Z"/><path class="cls-12" d="M459.177,267.334c2.598,.415,3.78,2.247,4.811,4.441,1.292,2.75,3.084,5.279,4.253,8.071,1.572,3.754,8.745,7.669,6.149,9.344-4.387,2.831-8.074-3.524-11.64-6.589-3.271-2.811-5.508-6.494-6.718-10.597-.694-2.356-.337-4.722,3.144-4.67Z"/><path class="cls-32" d="M513.001,262.695c-1.939-.419-4.566-.865-7.123-1.564-6.521-1.781-14.222-.174-19.168-6.519,7.364-2.949,14.001,1.795,21.079,2.009,2.244,.068,4.466,.851,6.699,1.303,1.758,.357,4.55,.021,4.464,2.327-.119,3.161-3.23,2.031-5.95,2.444Z"/><path class="cls-68" d="M736.752,535.184c-1.687-3.243-3.374-6.485-5.061-9.729,4.528-9.222,10.185-8.595,16.541-1.869-2.536,5.128-5.662,9.676-11.479,11.599Z"/><path class="cls-24" d="M815.471,419.367c3.766,0,7.532,0,11.298-.001-.514,7.149-.347,14.473-5.319,20.481-5.107-5.93-3.152-13.893-5.979-20.479Z"/><path class="cls-54" d="M654.358,452.548c-4.792-.09-8.802,.897-8.779-5.264,.019-5.095,2.088-6.618,6.813-6.37,3.885,.204,7.659-.342,7.638,5.505-.018,4.921-1.579,7.268-5.672,6.129Z"/><path class="cls-17" d="M413.218,269.444c3.301,.375,3.256,2.906,2.986,5.135-.731,6.018-5.018,10.156-8.542,14.591-1.33,1.674-3.705,1.188-4.891-.664-1.606-2.508,7.661-19.161,10.447-19.063Z"/><path class="cls-80" d="M750.57,519.244c.257-4.413-1.918-7.81-4.349-11.275-3.67-5.23-4.262-10.397,1.749-14.631,8.314,7.898,6.092,16.839,2.6,25.905Z"/><path class="cls-35" d="M406.811,217.885c-.359,1.933-1.992,3.98-3.528,1.815-4.642-6.543-11.804-11.137-14.808-18.86-.644-1.656-1.184-3.944,2.125-3.502,2.12,.283,16.308,18.117,16.21,20.546Z"/><path class="cls-10" d="M676.283,588.166c-7.173,6.437-23.598,6.45-30.823,.025,10.273-.008,20.548-.017,30.823-.025Z"/><path class="cls-26" d="M880.287,497.713c.804,.822,1.608,1.644,2.412,2.466-5.884,7.99-13.197,14.567-20.855,20.802-2.231,.792-2.703-.181-2.184-2.147,6.876-7.04,13.751-14.081,20.627-21.121Z"/><path class="cls-43" d="M317.97,280.768c-.833-.868-1.666-1.736-2.499-2.605,1.465-1.197,2.894-2.441,4.402-3.582,4.637-3.508,8.26-8.891,15.199-8.19-4.122,4.326-7.607,9.322-13.058,12.249-1.342,.72-2.695,1.419-4.043,2.128Z"/><path class="cls-30" d="M673.524,601.57c8.267-1.911,16.267-6.638,25.119-2.354-1.387,.176-2.771,.353-4.156,.53-.968,.615-1.77,1.506-2.954,1.764-5.248,.746-10.497,1.491-15.745,2.237-.755-.726-1.51-1.451-2.265-2.177Z"/><path class="cls-20" d="M225.373,318.014c4.127-5.6,8.338-11.111,14.968-14.089-2.454,6.821-8.624,10.794-12.715,16.36-1.052-.462-1.789-1.234-2.253-2.271Z"/><path class="cls-51" d="M225.373,318.014c.751,.757,1.502,1.514,2.253,2.271-2.951,4.757-4.251,10.561-9.078,14.129-.793-.839-1.586-1.679-2.378-2.518,3.068-4.627,6.135-9.255,9.203-13.882Z"/><path class="cls-50" d="M546.007,200.478c-.015,.588,.013,1.173,.085,1.756-9.194,.239-18.431,1.471-27.508-1.128,9.113-1.393,18.263-1.229,27.423-.628Z"/><path class="cls-78" d="M859.66,518.834c.728,.716,1.456,1.432,2.184,2.147-4.487,5.057-9.484,9.44-15.928,11.915l-.669-.73c4.201-5.087,8.766-9.787,14.413-13.332Z"/><path class="cls-74" d="M634.159,257.938c-7.184-.293-14.457,.424-21.462-1.883,1.005-2.245,3.691-.982,5.09-2.405,5.392,.741,10.784,1.481,16.175,2.222,.667,.401,.918,.84,.755,1.319-.17,.498-.356,.747-.558,.747Z"/><path class="cls-19" d="M437.125,588.299c-.54,1.441-1.081,2.882-1.633,4.323-4.481-.889-10.459,2.521-12.796-4.427,4.812,.035,9.621,.07,14.429,.104Z"/><path class="cls-6" d="M615.725,302.11c-.95,.606-1.837,1.584-2.861,1.755-4.845,.807-9.728,1.393-14.597,2.058,4.157-4.184,9.535-5.496,15.112-6.34,.766,.857,2.254,1.052,2.345,2.527Z"/><path class="cls-38" d="M438.285,274.204c-.498,2.254-1.043,4.802-4.077,4.311-3.075-.497-2.562-3.246-2.497-5.44,.059-2.017,.772-3.997,3.145-3.82,2.83,.21,3.58,2.395,3.429,4.949Z"/><path class="cls-65" d="M471.455,220.148c.461,3.532-2.097,4.459-4.703,5.103-1.433,.354-3.945-.2-3.294-1.619,1.13-2.461,3.237-4.798,5.526-6.297,1.376-.901,2.167,1.333,2.471,2.813Z"/><path class="cls-44" d="M617.787,253.65c-1.697,.802-3.393,1.604-5.09,2.405-3.709,.56-7.418,1.119-11.128,1.679-.841-.743-1.682-1.485-2.522-2.228,5.868-4.387,12.443-1.737,18.74-1.856Z"/><path class="cls-58" d="M482.371,263.699c-.393,2.92-1.851,3.094-3.33,2.471-1.927-.812-4.756-.925-4.689-3.907,.044-1.943,1.952-2.398,3.246-1.828,1.876,.826,3.452,2.325,4.773,3.264Z"/><path class="cls-75" d="M615.725,302.11c-.782-.842-1.564-1.684-2.345-2.527,4.679-1.443,9.359-2.887,14.038-4.33,1.034,.414,1.802,1.116,2.303,2.105-4.665,1.584-9.33,3.168-13.996,4.751Z"/><path class="cls-49" d="M498.526,243.264c.065,2.688-1.599,2.916-3.055,3.002-2.297,.136-4.949,.133-5.729-2.536-.683-2.338,1.722-1.95,2.951-2.031,2.175-.144,4.517-.268,5.832,1.565Z"/><path class="cls-78" d="M845.915,532.897c-2.625,3.578-3.504,9.03-9.63,8.852l-.006-.007c2.197-3.924,3.42-8.749,8.97-9.572-.003-.004,.666,.727,.666,.727Z"/><path class="cls-37" d="M424.168,209.622c1.917,.609,3.22,1.718,3.163,3.88-.048,1.811-1.274,2.812-2.823,2.441-1.823-.437-3.151-1.891-3.297-3.907-.148-2.043,1.561-2.102,2.957-2.414Z"/><path class="cls-55" d="M629.721,297.358c-.768-.702-1.535-1.403-2.303-2.105,3.062-.724,6.124-1.448,9.185-2.173,.926,.698,1.852,1.397,2.778,2.095-2.876,2.23-6.342,1.885-9.661,2.182Z"/><path class="cls-13" d="M395.631,264.828c.894,.63,3.357-.316,2.503,2.203-.683,2.015-2.617,2.519-4.48,2.407-1.218-.073-3.354,.068-2.619-2.264,.664-2.104,2.673-2.17,4.596-2.346Z"/><path class="cls-82" d="M634.159,257.938c.115-.705,.049-1.394-.196-2.066,.747-.038,1.625-.349,2.217-.067,2.423,1.156,4.757,2.493,7.125,3.763-3.305,.878-6.64,1.916-9.145-1.63Z"/><path class="cls-14" d="M838.85,368.526c-5.748-.063-11.496-.126-17.245-.191,5.776-2.478,11.529-2.802,17.245,.191Z"/><path class="cls-45" d="M436.677,451.78c.733-.743,1.466-1.486,2.199-2.229,2.677,1.038,6.375,3.163,4.752,5.415-1.336,1.853-5.014-.965-6.95-3.186Z"/><path class="cls-28" d="M302.064,445.053c.907,.833,1.814,1.667,2.721,2.5-2.793,2.489-5.914,4.238-9.794,4.269l-.071-.071c.948-3.74,3.99-5.278,7.144-6.698Z"/><path class="cls-57" d="M393.647,226.177c.149,1.511-.973,1.695-2.035,1.746-2.021,.097-3.787-.526-4.343-2.653-.373-1.427,.844-1.798,1.97-1.818,2.02-.036,3.627,.711,4.408,2.724Z"/><path class="cls-72" d="M785.466,387.016c3.716,4.716,1.884,10.081,1.807,15.244-2.804-4.821-1.96-10.073-1.807-15.244Z"/><path class="cls-73" d="M381.715,249.863c-2.3,2.065-4.596,1.493-6.752,1.201-.713-.097-1.309-1.044-1.958-1.602,1.901-1.725,4.188-1.219,6.364-.952,.771,.094,1.463,.821,2.347,1.353Z"/><path class="cls-72" d="M787.381,414.877l-.942,.009s-.942-.003-.942-.003c.004-1.588,.009-3.175,.013-4.764,1.621,1.198,2.008,2.876,1.87,4.757Z"/><path class="cls-46" d="M801.099,365.645c.162,1.192,.323,2.383,.485,3.575-.75,1.038-1.931,1.38-2.081-.034-.118-1.112,1.018-2.355,1.596-3.541Z"/><path class="cls-68" d="M734.071,539.07c.079-1.926,.507-3.611,2.796-4.025-.211,1.835-.126,3.875-2.796,4.025Z"/><path class="cls-72" d="M787.35,404.971c-.533,1.022-1.067,2.045-1.6,3.069,.533-1.022,1.067-2.045,1.6-3.069Z"/><path class="cls-62" d="M833.92,336.919c-.993,.518-1.986,1.035-2.979,1.553,.992-.518,1.986-1.035,2.979-1.553Z"/><path class="cls-1" d="M760.142,343.131c-.922-.494-1.843-.988-2.765-1.483,.922,.494,1.843,.988,2.765,1.483Z"/><path class="cls-66" d="M745.938,491.546l-1.856,1.068c-.028-.717-.055-1.435-.079-2.151,.777,.134,1.421,.494,1.935,1.083Z"/><path class="cls-62" d="M829.546,357.777c.334-1.758,.877-2.522,2.025-.42-.695,.043-1.37,.183-2.025,.42Z"/><path class="cls-62" d="M829.266,339.087c-.99,.556-1.98,1.112-2.971,1.668,.99-.556,1.981-1.112,2.971-1.668Z"/><path class="cls-72" d="M788.332,384.569c-.884,.165-1.767,.33-2.652,.497,.38-2.805,1.52-1.63,2.652-.497Z"/><path class="cls-64" d="M731.721,366.364c.689-.785,1.378-1.57,2.067-2.354-.689,.785-1.378,1.57-2.067,2.354Z"/><path class="cls-64" d="M733.957,363.735c.831-1.227,1.662-1.258,2.491,.001-.83,0-1.661,0-2.491-.001Z"/><path class="cls-25" d="M294.991,451.822c-.363,.546-.726,1.091-1.089,1.637-1.577-1.698,.027-1.522,1.019-1.707,0,0,.07,.071,.07,.071Z"/><path class="cls-8" d="M691.533,601.51c.985-.589,1.971-1.178,2.955-1.766-.986,.589-1.97,1.178-2.955,1.766Z"/><path class="cls-41" d="M378.584,599.47c-19.234-.695-34.552-12.133-51.454-19.002-22.246-9.039-42.402-22.154-60.11-38.317-8.137-7.427-14.38-16.909-21.387-25.534-.549-.676-.356-1.946-.508-2.94,1.237,.635,2.575,1.13,3.695,1.927,13.761,9.793,27.008,20.397,41.331,29.292,27.269,16.933,56.652,29.652,87.067,39.999,2.15,.731,4.654,.754,6.011,3.032-.634,4.21-1.438,8.354-4.645,11.544Z"/><path class="cls-67" d="M378.584,599.47c.105-4.421-.799-9.242,4.645-11.544,0,0,.01-.007,.01-.007,2.122,1.859,5.185,2.29,7.031,4.568,26.84,6.423,53.423,13.913,80.938,17.389,14.902,1.882,29.729,3.896,44.795,3.602,2.442-.048,6.673-1.3,6.98,1.741,.403,4.002-3.991,2.555-6.166,2.416-25.689-1.639-51.461-2.67-77.011-5.585-19.759-2.255-39.235-6.945-58.837-10.552-.83-.651-1.629-1.336-2.398-2.057l.013,.031Z"/><path class="cls-41" d="M390.27,592.487c-3.398,.077-5.673-1.55-7.031-4.568,3.46-.172,6.698-.007,7.031,4.568Z"/><path class="cls-41" d="M378.571,599.439c.799,.687,1.599,1.374,2.398,2.059-.799-.688-1.598-1.373-2.398-2.059Z"/><path class="cls-22" d="M397.663,335.765c-.154,17.281-12.736,29.291-30.378,28.996-16.789-.28-28.773-12.594-28.714-29.505,.068-19.571,11.843-31.745,30.378-31.407,17.686,.322,28.885,12.77,28.714,31.915Z"/><path class="cls-33" d="M315.357,359.156c.227-.966,.608-4.03,1.692-6.824,1.404-3.619,3.78-7.715,7.513-8.09,4.533-.456,3.589,5.01,4.943,7.768,3.652,7.438,8.741,13.422,15.445,18.236,1.958,1.406,5.659,1.626,4.876,5.35-.768,3.653-3.289,5.684-6.821,7.058-13.517,5.258-27.527-5.514-27.647-23.498Z"/><path class="cls-33" d="M415.234,374.466c.35,9.45-6.432,17.311-14.386,17.216-8.569-.102-13.492-4.916-14.853-13.104-.685-4.122,13.253-17.516,17.826-16.88,7.74,1.076,10.388,6.919,11.414,12.768Z"/><path class="cls-34" d="M417.965,495.294c-2.067,.225-4.131-.193-5.653-1.572,1.067,1.064,2.729,1.668,4.578,1.746,.846,.036,1.621-.013,2.342-.124-.424,.009-.847-.006-1.267-.05Z"/><path class="cls-68" d="M729.649,525.9c-.839,.68-1.679,1.361-2.518,2.041,.84-.68,1.679-1.361,2.518-2.041Z"/><path class="cls-42" d="M412.921,226.919c3.545-1.464,7.344-1.978,11.132-1.386-5.679-1.062-11.834,.927-17.276,4.73,1.956-1.28,3.981-2.451,6.144-3.344Z"/></g></g><g id="Capa_2"><text class="cls-4" transform="translate(443.971 429.941) scale(.681 1)"><tspan x="0" y="0">Agricola de la Costa</tspan></text><text class="cls-3" transform="translate(466.155 539.459) scale(.99 1)"><tspan x="0" y="0">S.</tspan><tspan class="cls-53" x="33.97" y="0">P</tspan><tspan x="51.682" y="0">.R. de R.L.</tspan></text></g></svg>